<svg xmlns="http://www.w3.org/2000/svg" viewBox="362 374 295.5 510"><defs><style>.a{fill:#646464;}.b,.c{stroke:none;}.c{fill:#707070;}</style></defs><g class="a" transform="translate(362 374)"><path class="b" d="M 99.49990844726562 509.5003356933594 L 0.5000349283218384 509.5003356933594 L 0.5000349283218384 500.5004577636719 L 45.00003433227539 500.5004577636719 L 45.50003433227539 500.5004577636719 L 45.50003433227539 500.0004577636719 L 45.50003433227539 9.999902725219727 L 45.50003433227539 0.500027596950531 L 294.5002136230469 0.500027596950531 L 294.5002136230469 0.500402569770813 L 294.5002136230469 1.000402569770813 L 294.9997253417969 1.000402569770813 L 294.9997253417969 100.0003433227539 L 285.9998474121094 100.0003433227539 L 285.9998474121094 9.999902725219727 L 285.9998474121094 9.499902725219727 L 285.4998474121094 9.499902725219727 L 54.99990844726562 9.499902725219727 L 54.49990844726562 9.499902725219727 L 54.49990844726562 9.999902725219727 L 54.49990844726562 500.0004577636719 L 54.49990844726562 500.5004577636719 L 54.99990844726562 500.5004577636719 L 99.49990844726562 500.5004577636719 L 99.49990844726562 509.5003356933594 Z"/><path class="c" d="M 98.99990844726562 509.0003356933594 L 98.99990844726562 501.0004577636719 L 54.99990844726562 501.0004577636719 L 53.99990844726562 501.0004577636719 L 53.99990844726562 500.0004577636719 L 53.99990844726562 9.999902725219727 L 53.99990844726562 8.999902725219727 L 54.99990844726562 8.999902725219727 L 285.4998474121094 8.999902725219727 L 286.4998474121094 8.999902725219727 L 286.4998474121094 9.999902725219727 L 286.4998474121094 99.50034332275391 L 294.4997253417969 99.50034332275391 L 294.4997253417969 1.500402569770813 L 294.0002136230469 1.500402569770813 L 294.0002136230469 1.000027537345886 L 46.00003433227539 1.000027537345886 L 46.00003433227539 9.999902725219727 L 46.00003433227539 500.0004577636719 L 46.00003433227539 501.0004577636719 L 45.00003433227539 501.0004577636719 L 1.000034928321838 501.0004577636719 L 1.000034928321838 509.0003356933594 L 98.99990844726562 509.0003356933594 M 99.99990844726562 510.0003356933594 L 3.491211100481451e-05 510.0003356933594 L 3.491211100481451e-05 500.0004577636719 L 45.00003433227539 500.0004577636719 L 45.00003433227539 9.999902725219727 L 45.00003433227539 2.75878901447868e-05 L 295.0002136230469 2.75878901447868e-05 L 295.0002136230469 0.500402569770813 L 295.4997253417969 0.500402569770813 L 295.4997253417969 100.5003433227539 L 285.4998474121094 100.5003433227539 L 285.4998474121094 9.999902725219727 L 54.99990844726562 9.999902725219727 L 54.99990844726562 500.0004577636719 L 99.99990844726562 500.0004577636719 L 99.99990844726562 510.0003356933594 Z"/></g></svg>